<svg width="12" height="12" viewBox="0 0 12 12" fill="none" xmlns="http://www.w3.org/2000/svg">
<g id="solar:copyright-outline" clip-path="url(#clip0_918_864)">
<g id="Group">
<path id="Vector" fill-rule="evenodd" clip-rule="evenodd" d="M0.625 6C0.625 3.0315 3.0315 0.625 6 0.625C8.9685 0.625 11.375 3.0315 11.375 6C11.375 8.9685 8.9685 11.375 6 11.375C3.0315 11.375 0.625 8.9685 0.625 6ZM6 1.375C4.77337 1.375 3.59699 1.86228 2.72963 2.72963C1.86228 3.59699 1.375 4.77337 1.375 6C1.375 7.22663 1.86228 8.40301 2.72963 9.27037C3.59699 10.1377 4.77337 10.625 6 10.625C7.22663 10.625 8.40301 10.1377 9.27037 9.27037C10.1377 8.40301 10.625 7.22663 10.625 6C10.625 4.77337 10.1377 3.59699 9.27037 2.72963C8.40301 1.86228 7.22663 1.375 6 1.375Z" fill="black"/>
<path id="Vector_2" fill-rule="evenodd" clip-rule="evenodd" d="M6.143 4.375C5.1415 4.375 4.375 5.1265 4.375 6C4.375 6.8735 5.1415 7.625 6.143 7.625C6.3985 7.625 6.6405 7.575 6.858 7.4865C6.9036 7.46789 6.95242 7.45844 7.00168 7.45869C7.05093 7.45894 7.09965 7.46889 7.14506 7.48798C7.19047 7.50706 7.23167 7.5349 7.26632 7.56991C7.30097 7.60491 7.32839 7.6464 7.347 7.692C7.36561 7.7376 7.37507 7.78642 7.37481 7.83568C7.37456 7.88493 7.36461 7.93365 7.34553 7.97906C7.32644 8.02447 7.2986 8.06567 7.2636 8.10032C7.22859 8.13497 7.1871 8.16239 7.1415 8.181C6.82432 8.30954 6.48524 8.37542 6.143 8.375C4.777 8.375 3.625 7.3355 3.625 6C3.625 4.6645 4.777 3.625 6.143 3.625C6.48524 3.62459 6.82432 3.69047 7.1415 3.819C7.23366 3.85653 7.30714 3.92913 7.34578 4.02084C7.38441 4.11254 7.38503 4.21584 7.3475 4.308C7.30997 4.40016 7.23737 4.47364 7.14566 4.51228C7.05396 4.55091 6.95066 4.55153 6.8585 4.514C6.63121 4.42193 6.38824 4.37473 6.143 4.375Z" fill="black"/>
</g>
</g>
<defs>
<clipPath id="clip0_918_864">
<rect width="12" height="12" fill="white"/>
</clipPath>
</defs>
</svg>
