<svg width="22" height="22" viewBox="0 0 22 22" fill="none" xmlns="http://www.w3.org/2000/svg">
<g id="ic:baseline-discord">
<path id="Vector" d="M17.6644 4.88567C16.4453 4.31734 15.1253 3.90484 13.7503 3.6665C13.7261 3.66685 13.703 3.67673 13.6861 3.694C13.5211 3.9965 13.3286 4.39067 13.2003 4.69317C11.7418 4.47331 10.2587 4.47331 8.80027 4.69317C8.67194 4.3815 8.47944 3.9965 8.30527 3.694C8.2961 3.67567 8.2686 3.6665 8.2411 3.6665C6.8661 3.90484 5.55527 4.31734 4.32694 4.88567C4.31777 4.88567 4.3086 4.89484 4.29944 4.904C1.8061 8.63484 1.1186 12.2648 1.45777 15.8582C1.45777 15.8765 1.46694 15.8948 1.48527 15.904C3.13527 17.114 4.7211 17.8473 6.2886 18.3332C6.3161 18.3423 6.3436 18.3332 6.35277 18.3148C6.71944 17.8107 7.04944 17.279 7.3336 16.7198C7.35194 16.6832 7.3336 16.6465 7.29694 16.6373C6.77444 16.4357 6.27944 16.1973 5.7936 15.9223C5.75694 15.904 5.75694 15.849 5.78444 15.8215C5.88527 15.7482 5.9861 15.6657 6.08694 15.5923C6.10527 15.574 6.13277 15.574 6.1511 15.5832C9.30444 17.0223 12.7053 17.0223 15.8219 15.5832C15.8403 15.574 15.8678 15.574 15.8861 15.5923C15.9869 15.6748 16.0878 15.7482 16.1886 15.8307C16.2253 15.8582 16.2253 15.9132 16.1794 15.9315C15.7028 16.2157 15.1986 16.4448 14.6761 16.6465C14.6394 16.6557 14.6303 16.7015 14.6394 16.729C14.9328 17.2882 15.2628 17.8198 15.6203 18.324C15.6478 18.3332 15.6753 18.3423 15.7028 18.3332C17.2794 17.8473 18.8653 17.114 20.5153 15.904C20.5336 15.8948 20.5428 15.8765 20.5428 15.8582C20.9461 11.7057 19.8736 8.10317 17.7011 4.904C17.6919 4.89484 17.6828 4.88567 17.6644 4.88567ZM7.81027 13.6673C6.8661 13.6673 6.07777 12.7965 6.07777 11.724C6.07777 10.6515 6.84777 9.78067 7.81027 9.78067C8.78194 9.78067 9.55194 10.6607 9.54277 11.724C9.54277 12.7965 8.77277 13.6673 7.81027 13.6673ZM14.1994 13.6673C13.2553 13.6673 12.4669 12.7965 12.4669 11.724C12.4669 10.6515 13.2369 9.78067 14.1994 9.78067C15.1711 9.78067 15.9411 10.6607 15.9319 11.724C15.9319 12.7965 15.1711 13.6673 14.1994 13.6673Z" fill="black"/>
</g>
</svg>
