<svg width="22" height="22" viewBox="0 0 22 22" fill="none" xmlns="http://www.w3.org/2000/svg">
<g id="mdi:instagram">
<path id="Vector" d="M7.14967 1.8335H14.8497C17.783 1.8335 20.1663 4.21683 20.1663 7.15016V14.8502C20.1663 16.2602 19.6062 17.6125 18.6091 18.6096C17.6121 19.6067 16.2597 20.1668 14.8497 20.1668H7.14967C4.21634 20.1668 1.83301 17.7835 1.83301 14.8502V7.15016C1.83301 5.7401 2.39316 4.38778 3.39022 3.39071C4.38729 2.39364 5.73961 1.8335 7.14967 1.8335ZM6.96634 3.66683C6.09113 3.66683 5.25176 4.01451 4.63289 4.63338C4.01402 5.25225 3.66634 6.09162 3.66634 6.96683V15.0335C3.66634 16.8577 5.14217 18.3335 6.96634 18.3335H15.033C15.9082 18.3335 16.7476 17.9858 17.3665 17.367C17.9853 16.7481 18.333 15.9087 18.333 15.0335V6.96683C18.333 5.14266 16.8572 3.66683 15.033 3.66683H6.96634ZM15.8122 5.04183C16.1161 5.04183 16.4075 5.16255 16.6224 5.37744C16.8373 5.59232 16.958 5.88377 16.958 6.18766C16.958 6.49156 16.8373 6.783 16.6224 6.99789C16.4075 7.21277 16.1161 7.3335 15.8122 7.3335C15.5083 7.3335 15.2168 7.21277 15.0019 6.99789C14.7871 6.783 14.6663 6.49156 14.6663 6.18766C14.6663 5.88377 14.7871 5.59232 15.0019 5.37744C15.2168 5.16255 15.5083 5.04183 15.8122 5.04183ZM10.9997 6.41683C12.2153 6.41683 13.381 6.89971 14.2406 7.75926C15.1001 8.6188 15.583 9.78459 15.583 11.0002C15.583 12.2157 15.1001 13.3815 14.2406 14.2411C13.381 15.1006 12.2153 15.5835 10.9997 15.5835C9.7841 15.5835 8.61831 15.1006 7.75877 14.2411C6.89923 13.3815 6.41634 12.2157 6.41634 11.0002C6.41634 9.78459 6.89923 8.6188 7.75877 7.75926C8.61831 6.89971 9.7841 6.41683 10.9997 6.41683ZM10.9997 8.25016C10.2703 8.25016 9.57086 8.53989 9.05513 9.05562C8.53941 9.57134 8.24967 10.2708 8.24967 11.0002C8.24967 11.7295 8.53941 12.429 9.05513 12.9447C9.57086 13.4604 10.2703 13.7502 10.9997 13.7502C11.729 13.7502 12.4285 13.4604 12.9442 12.9447C13.4599 12.429 13.7497 11.7295 13.7497 11.0002C13.7497 10.2708 13.4599 9.57134 12.9442 9.05562C12.4285 8.53989 11.729 8.25016 10.9997 8.25016Z" fill="black"/>
</g>
</svg>
