<svg width="22" height="22" viewBox="0 0 22 22" fill="none" xmlns="http://www.w3.org/2000/svg">
<g id="mdi:youtube">
<path id="Vector" d="M9.16634 13.7502L13.9238 11.0002L9.16634 8.25016V13.7502ZM19.763 6.57266C19.8822 7.0035 19.9647 7.581 20.0197 8.31433C20.0838 9.04766 20.1113 9.68016 20.1113 10.2302L20.1663 11.0002C20.1663 13.0077 20.0197 14.4835 19.763 15.4277C19.5338 16.2527 19.0022 16.7843 18.1772 17.0135C17.7463 17.1327 16.958 17.2152 15.748 17.2702C14.5563 17.3343 13.4655 17.3618 12.4572 17.3618L10.9997 17.4168C7.15884 17.4168 4.76634 17.2702 3.82217 17.0135C2.99717 16.7843 2.46551 16.2527 2.23634 15.4277C2.11717 14.9968 2.03467 14.4193 1.97967 13.686C1.91551 12.9527 1.88801 12.3202 1.88801 11.7702L1.83301 11.0002C1.83301 8.99266 1.97967 7.51683 2.23634 6.57266C2.46551 5.74766 2.99717 5.216 3.82217 4.98683C4.25301 4.86766 5.04134 4.78516 6.25134 4.73016C7.44301 4.666 8.53384 4.6385 9.54217 4.6385L10.9997 4.5835C14.8405 4.5835 17.233 4.73016 18.1772 4.98683C19.0022 5.216 19.5338 5.74766 19.763 6.57266Z" fill="black"/>
</g>
</svg>
